<svg width="161" height="45" viewBox="0 0 161 45" fill="none" xmlns="http://www.w3.org/2000/svg">
<path d="M4.80401 9.98V35H0.700012V9.98H4.80401Z" fill="#0156BA"/>
<path d="M30.1722 9.98V35H26.0682V24.056H14.2962V35H10.1922V9.98H14.2962V20.708H26.0682V9.98H30.1722Z" fill="#0156BA"/>
<path d="M53.755 24.596C53.755 25.34 53.707 26.012 53.611 26.612H38.455C38.575 28.196 39.163 29.468 40.219 30.428C41.275 31.388 42.571 31.868 44.107 31.868C46.315 31.868 47.875 30.944 48.787 29.096H53.215C52.615 30.92 51.523 32.42 49.939 33.596C48.379 34.748 46.435 35.324 44.107 35.324C42.211 35.324 40.507 34.904 38.995 34.064C37.507 33.2 36.331 32 35.467 30.464C34.627 28.904 34.207 27.104 34.207 25.064C34.207 23.024 34.615 21.236 35.431 19.7C36.271 18.14 37.435 16.94 38.923 16.1C40.435 15.26 42.163 14.84 44.107 14.84C45.979 14.84 47.647 15.248 49.111 16.064C50.575 16.88 51.715 18.032 52.531 19.52C53.347 20.984 53.755 22.676 53.755 24.596ZM49.471 23.3C49.447 21.788 48.907 20.576 47.851 19.664C46.795 18.752 45.487 18.296 43.927 18.296C42.511 18.296 41.299 18.752 40.291 19.664C39.283 20.552 38.683 21.764 38.491 23.3H49.471Z" fill="#0156BA"/>
<path d="M61.8978 8.36V35H57.7938V8.36H61.8978Z" fill="#0156BA"/>
<path d="M71.39 18.08C72.086 17.168 73.0339 16.4 74.2339 15.776C75.4339 15.152 76.7899 14.84 78.3019 14.84C80.0299 14.84 81.602 15.272 83.018 16.136C84.458 16.976 85.5859 18.164 86.4019 19.7C87.2179 21.236 87.626 23 87.626 24.992C87.626 26.984 87.2179 28.772 86.4019 30.356C85.5859 31.916 84.458 33.14 83.018 34.028C81.602 34.892 80.0299 35.324 78.3019 35.324C76.7899 35.324 75.446 35.024 74.27 34.424C73.094 33.8 72.134 33.032 71.39 32.12V44.432H67.2859V15.164H71.39V18.08ZM83.45 24.992C83.45 23.624 83.162 22.448 82.586 21.464C82.034 20.456 81.29 19.7 80.354 19.196C79.442 18.668 78.4579 18.404 77.4019 18.404C76.3699 18.404 75.386 18.668 74.45 19.196C73.538 19.724 72.7939 20.492 72.2179 21.5C71.6659 22.508 71.39 23.696 71.39 25.064C71.39 26.432 71.6659 27.632 72.2179 28.664C72.7939 29.672 73.538 30.44 74.45 30.968C75.386 31.496 76.3699 31.76 77.4019 31.76C78.4579 31.76 79.442 31.496 80.354 30.968C81.29 30.416 82.034 29.624 82.586 28.592C83.162 27.56 83.45 26.36 83.45 24.992Z" fill="#0156BA"/>
<path d="M95.7524 9.98V25.928C95.7524 27.824 96.2444 29.252 97.2284 30.212C98.2364 31.172 99.6284 31.652 101.404 31.652C103.204 31.652 104.596 31.172 105.58 30.212C106.588 29.252 107.092 27.824 107.092 25.928V9.98H111.196V25.856C111.196 27.896 110.752 29.624 109.864 31.04C108.976 32.456 107.788 33.512 106.3 34.208C104.812 34.904 103.168 35.252 101.368 35.252C99.5684 35.252 97.9244 34.904 96.4364 34.208C94.9724 33.512 93.8084 32.456 92.9444 31.04C92.0804 29.624 91.6484 27.896 91.6484 25.856V9.98H95.7524Z" fill="#0156BA"/>
<path d="M131.556 0H145.444C149.569 0 153.526 1.68625 156.444 4.68778C159.361 7.68932 161 11.7603 161 16.0051C161 20.2499 159.361 24.3209 156.444 27.3224C153.526 30.3239 149.569 32.0102 145.444 32.0102H132.154L123.08 40.5121C122.819 40.7564 122.494 40.9175 122.146 40.9757C121.798 41.034 121.441 40.9869 121.118 40.8401C120.795 40.6934 120.521 40.4534 120.328 40.1493C120.135 39.8451 120.033 39.4899 120.033 39.1269V32.0102H117.821C117.338 32.0097 116.875 31.8121 116.534 31.4609C116.192 31.1096 116 30.6333 116 30.1365V16.0051C116.005 11.7617 117.645 7.69353 120.561 4.69303C123.478 1.69253 127.432 0.00475375 131.556 0ZM150.382 19.0164C150.975 19.0164 151.556 18.8352 152.05 18.4957C152.544 18.1562 152.929 17.6737 153.156 17.1092C153.383 16.5447 153.443 15.9235 153.327 15.3242C153.211 14.7249 152.925 14.1745 152.505 13.7424C152.085 13.3103 151.55 13.0161 150.967 12.8969C150.385 12.7777 149.781 12.8389 149.232 13.0727C148.684 13.3065 148.215 13.7025 147.885 14.2106C147.555 14.7186 147.379 15.3159 147.379 15.927C147.379 16.7462 147.696 17.5317 148.259 18.111C148.822 18.6903 149.585 19.016 150.382 19.0164ZM138.501 19.0164C139.095 19.0159 139.675 18.8344 140.169 18.4947C140.662 18.1549 141.047 17.6723 141.274 17.1077C141.501 16.5432 141.56 15.922 141.444 15.3229C141.328 14.7238 141.042 14.1735 140.622 13.7416C140.202 13.3098 139.666 13.0158 139.084 12.8967C138.502 12.7777 137.898 12.839 137.349 13.0729C136.801 13.3068 136.332 13.7028 136.002 14.2108C135.672 14.7188 135.496 15.316 135.496 15.927C135.496 16.3328 135.574 16.7348 135.725 17.1097C135.876 17.4847 136.097 17.8254 136.376 18.1123C136.655 18.3992 136.987 18.6267 137.351 18.7819C137.716 18.937 138.107 19.0167 138.501 19.0164ZM126.619 19.0164C127.212 19.0164 127.793 18.8352 128.287 18.4957C128.781 18.1562 129.166 17.6737 129.393 17.1092C129.62 16.5447 129.68 15.9235 129.564 15.3242C129.448 14.7249 129.162 14.1745 128.742 13.7424C128.322 13.3103 127.787 13.0161 127.204 12.8969C126.622 12.7777 126.018 12.8389 125.469 13.0727C124.921 13.3065 124.452 13.7025 124.122 14.2106C123.792 14.7186 123.616 15.3159 123.616 15.927C123.616 16.3327 123.693 16.7344 123.844 17.1093C123.995 17.4841 124.216 17.8247 124.495 18.1116C124.774 18.3984 125.105 18.626 125.469 18.7812C125.834 18.9365 126.224 19.0164 126.619 19.0164Z" fill="#0156BA"/>
</svg>
