<svg width="89" height="29" viewBox="0 0 89 29" fill="none" xmlns="http://www.w3.org/2000/svg">
<g filter="url(#filter0_d_4_83)">
<path d="M6.26048 3.79345V16.9024H4V3.79345H6.26048Z" fill="white"/>
<path d="M17.734 9.26753V11.0592H10.7724V9.26753H17.734ZM11.3308 3.79345V16.9024H9.07032V3.79345H11.3308ZM19.4721 3.79345V16.9024H17.2207V3.79345H19.4721Z" fill="white"/>
<path d="M26.2446 17.0825C25.5241 17.0825 24.8727 16.9655 24.2903 16.7314C23.7139 16.4913 23.2216 16.1582 22.8133 15.732C22.411 15.3058 22.1018 14.8046 21.8857 14.2284C21.6696 13.6522 21.5615 13.031 21.5615 12.3647V12.0046C21.5615 11.2423 21.6726 10.552 21.8947 9.93378C22.1169 9.31555 22.4261 8.78735 22.8223 8.34918C23.2186 7.90501 23.6869 7.56588 24.2272 7.33179C24.7676 7.0977 25.353 6.98066 25.9834 6.98066C26.6798 6.98066 27.2892 7.0977 27.8116 7.33179C28.3339 7.56588 28.7662 7.89601 29.1084 8.32217C29.4567 8.74233 29.7148 9.24352 29.8829 9.82574C30.0571 10.408 30.1441 11.0502 30.1441 11.7525V12.6798H22.6152V11.1222H28.0007V10.9512C27.9887 10.561 27.9106 10.1949 27.7666 9.85275C27.6285 9.51062 27.4153 9.23452 27.1271 9.02444C26.8389 8.81436 26.4547 8.70932 25.9744 8.70932C25.6141 8.70932 25.2929 8.78735 25.0107 8.94341C24.7346 9.09346 24.5034 9.31255 24.3173 9.60066C24.1312 9.88877 23.9871 10.2369 23.885 10.6451C23.7889 11.0472 23.7409 11.5004 23.7409 12.0046V12.3647C23.7409 12.7909 23.798 13.187 23.912 13.5532C24.0321 13.9133 24.2062 14.2284 24.4344 14.4985C24.6625 14.7686 24.9387 14.9817 25.2629 15.1378C25.5871 15.2878 25.9564 15.3629 26.3706 15.3629C26.893 15.3629 27.3583 15.2578 27.7666 15.0477C28.1748 14.8377 28.5291 14.5405 28.8292 14.1564L29.973 15.2638C29.7629 15.5699 29.4897 15.864 29.1535 16.1462C28.8172 16.4223 28.406 16.6473 27.9197 16.8214C27.4393 16.9955 26.881 17.0825 26.2446 17.0825Z" fill="white"/>
<path d="M34.1607 3.07317V16.9024H31.9813V3.07317H34.1607Z" fill="white"/>
<path d="M38.7177 9.03344V20.6479H36.5473V7.16073H38.5466L38.7177 9.03344ZM45.0669 11.9415V12.1306C45.0669 12.8389 44.9828 13.4961 44.8147 14.1024C44.6526 14.7026 44.4094 15.2278 44.0852 15.678C43.767 16.1221 43.3738 16.4673 42.9055 16.7134C42.4372 16.9595 41.8968 17.0825 41.2844 17.0825C40.678 17.0825 40.1467 16.9715 39.6904 16.7494C39.2401 16.5213 38.8588 16.2002 38.5466 15.786C38.2344 15.3719 37.9822 14.8857 37.7901 14.3275C37.604 13.7632 37.4719 13.145 37.3939 12.4728V11.7435C37.4719 11.0292 37.604 10.381 37.7901 9.79873C37.9822 9.21651 38.2344 8.71532 38.5466 8.29516C38.8588 7.875 39.2401 7.55088 39.6904 7.32279C40.1406 7.0947 40.666 6.98066 41.2664 6.98066C41.8788 6.98066 42.4221 7.10071 42.8965 7.3408C43.3708 7.57489 43.77 7.91101 44.0942 8.34918C44.4184 8.78134 44.6616 9.30354 44.8237 9.91578C44.9858 10.522 45.0669 11.1973 45.0669 11.9415ZM42.8965 12.1306V11.9415C42.8965 11.4914 42.8544 11.0742 42.7704 10.6901C42.6863 10.2999 42.5542 9.95779 42.3741 9.66368C42.194 9.36957 41.9628 9.14148 41.6807 8.97942C41.4045 8.81136 41.0713 8.72732 40.681 8.72732C40.2968 8.72732 39.9665 8.79335 39.6904 8.9254C39.4142 9.05145 39.183 9.22852 38.9969 9.4566C38.8108 9.68469 38.6667 9.95179 38.5646 10.2579C38.4626 10.558 38.3905 10.8851 38.3485 11.2393V12.9859C38.4205 13.4181 38.5436 13.8143 38.7177 14.1744C38.8918 14.5345 39.138 14.8226 39.4562 15.0387C39.7804 15.2488 40.1947 15.3538 40.699 15.3538C41.0893 15.3538 41.4225 15.2698 41.6987 15.1018C41.9749 14.9337 42.2 14.7026 42.3741 14.4085C42.5542 14.1084 42.6863 13.7632 42.7704 13.3731C42.8544 12.9829 42.8965 12.5688 42.8965 12.1306Z" fill="white"/>
<path d="M54.487 3.79345H56.7385V12.5538C56.7385 13.5502 56.5224 14.3845 56.0901 15.0567C55.6578 15.729 55.0694 16.2362 54.3249 16.5783C53.5864 16.9144 52.7609 17.0825 51.8483 17.0825C50.9057 17.0825 50.0651 16.9144 49.3267 16.5783C48.5882 16.2362 48.0058 15.729 47.5795 15.0567C47.1592 14.3845 46.9491 13.5502 46.9491 12.5538V3.79345H49.2006V12.5538C49.2006 13.184 49.3086 13.7032 49.5248 14.1114C49.7409 14.5135 50.0471 14.8106 50.4434 15.0027C50.8396 15.1948 51.308 15.2908 51.8483 15.2908C52.3887 15.2908 52.854 15.1948 53.2442 15.0027C53.6405 14.8106 53.9467 14.5135 54.1628 14.1114C54.379 13.7032 54.487 13.184 54.487 12.5538V3.79345Z" fill="white"/>
<path d="M69.915 0H77.0299C79.1437 0 81.1709 0.863688 82.6656 2.40106C84.1603 3.93843 85 6.02355 85 8.19773C85 10.3719 84.1603 12.457 82.6656 13.9944C81.1709 15.5318 79.1437 16.3955 77.0299 16.3955H70.2209L65.5721 20.7501C65.4384 20.8752 65.2722 20.9577 65.0938 20.9876C64.9153 21.0174 64.7323 20.9933 64.5669 20.9181C64.4016 20.843 64.261 20.72 64.1623 20.5643C64.0636 20.4085 64.011 20.2265 64.0109 20.0406V16.3955H62.8779C62.6305 16.3952 62.3934 16.294 62.2184 16.1141C62.0435 15.9342 61.9451 15.6902 61.9449 15.4358V8.19772C61.9473 6.0243 62.7877 3.94059 64.2819 2.40375C65.7761 0.866904 67.8019 0.00243485 69.915 0ZM79.5598 9.74009C79.8641 9.74009 80.1615 9.64729 80.4145 9.47341C80.6675 9.29954 80.8647 9.0524 80.9811 8.76326C81.0976 8.47411 81.128 8.15595 81.0687 7.849C81.0093 7.54204 80.8628 7.26009 80.6476 7.03879C80.4325 6.81749 80.1583 6.66678 79.8599 6.60572C79.5615 6.54467 79.2522 6.576 78.971 6.69577C78.6899 6.81554 78.4497 7.01836 78.2806 7.27858C78.1116 7.5388 78.0213 7.84474 78.0213 8.15771C78.0215 8.57731 78.1837 8.97967 78.4722 9.27638C78.7606 9.57308 79.1518 9.73988 79.5598 9.74009ZM73.473 9.74009C73.7773 9.73987 74.0746 9.64688 74.3274 9.47287C74.5803 9.29886 74.7773 9.05165 74.8936 8.76249C75.0099 8.47332 75.0402 8.15519 74.9807 7.84831C74.9212 7.54143 74.7746 7.25958 74.5594 7.0384C74.3442 6.81721 74.0701 6.66661 73.7717 6.60564C73.4733 6.54468 73.164 6.57608 72.8829 6.69588C72.6019 6.81568 72.3617 7.0185 72.1927 7.27869C72.0237 7.53889 71.9335 7.84479 71.9335 8.15771C71.9335 8.3656 71.9733 8.57147 72.0507 8.76353C72.128 8.95559 72.2415 9.13009 72.3844 9.27704C72.5274 9.42399 72.6971 9.54053 72.8839 9.61998C73.0707 9.69943 73.2709 9.74025 73.473 9.74009ZM67.3852 9.74009C67.6894 9.74009 67.9869 9.64729 68.2399 9.47341C68.4929 9.29954 68.6901 9.0524 68.8065 8.76326C68.923 8.47411 68.9534 8.15595 68.8941 7.849C68.8347 7.54204 68.6882 7.26009 68.473 7.03879C68.2579 6.81749 67.9837 6.66678 67.6853 6.60572C67.3869 6.54467 67.0776 6.576 66.7964 6.69577C66.5153 6.81554 66.2751 7.01836 66.106 7.27858C65.937 7.5388 65.8467 7.84474 65.8467 8.15771C65.8467 8.36551 65.8865 8.57128 65.9638 8.76328C66.0411 8.95527 66.1544 9.12971 66.2973 9.27665C66.4401 9.42359 66.6098 9.54015 66.7964 9.61966C66.9831 9.69918 67.1831 9.74011 67.3852 9.74009Z" fill="white"/>
</g>
<defs>
<filter id="filter0_d_4_83" x="0" y="0" width="89" height="29" filterUnits="userSpaceOnUse" color-interpolation-filters="sRGB">
<feFlood flood-opacity="0" result="BackgroundImageFix"/>
<feColorMatrix in="SourceAlpha" type="matrix" values="0 0 0 0 0 0 0 0 0 0 0 0 0 0 0 0 0 0 127 0" result="hardAlpha"/>
<feOffset dy="4"/>
<feGaussianBlur stdDeviation="2"/>
<feComposite in2="hardAlpha" operator="out"/>
<feColorMatrix type="matrix" values="0 0 0 0 0 0 0 0 0 0 0 0 0 0 0 0 0 0 0.25 0"/>
<feBlend mode="normal" in2="BackgroundImageFix" result="effect1_dropShadow_4_83"/>
<feBlend mode="normal" in="SourceGraphic" in2="effect1_dropShadow_4_83" result="shape"/>
</filter>
</defs>
</svg>
